<svg xmlns="http://www.w3.org/2000/svg" xmlns:xlink="http://www.w3.org/1999/xlink" width="1600" height="1201" viewBox="0 0 1600 1201">
  <defs>
    <clipPath id="clip-path">
      <rect id="Background" width="1600" height="1201" fill="#01002d"/>
    </clipPath>
  </defs>
  <g id="Mask_Group_14" data-name="Mask Group 14" clip-path="url(#clip-path)">
    <g id="Whangaehu" transform="translate(-209.129 -749.554)">
      <path id="Shape" d="M1386.2,894.825c.125-32.647,49.917-69.358,71.187-88.289,42.055-37.436,85.8-72.006,129.129-107.13s86.786-70.15,128.108-108.711c26.83-25.03,58.357-53.222,76.553-88.964,38.764-76.168-83.455-64.857-115.114-66.523-80.539-4.256-172.916-2.312-248.408-41.978-45.066-23.679-63.036-63.391-53.357-121.268,3.121-18.823,12.355-40.483,4.531-58.82-8.353-19.585-27.571-30.886-43.521-38.465-58.177-27.61-125.066-30.81-186.62-34.276-66.375-3.809-133.373-2.695-199.279-2.99-27.946-.124-57.132-12.377-83.744-22.337C830.776,102.023,796.3,87.361,761.7,73.184,685.587,42.07,607.15,9.3,526.625,1.4,476.193-3.553,421.073,3.14,381.9,46.2c-19.67,21.617-29.966,53.765-41.338,82.318-13.766,34.494-26.986,69.322-41.642,103.274C251.707,341.144,184.3,448,74.9,453.368c-16.551.809-32.805-1.828-49.278-2.323-10.49-.305-19.826,2.789-23.726,16.183-9.8,33.6,21.012,86.641,33.647,113.3C63.206,638.883,94.4,694.623,123.627,751.8c19.335,37.818,52.8,89.5,53.154,135.445.312,40.94-44.3,70.532-68.59,90.7-22.759,18.88-64,45.3-66.491,83.708-1.209,18.623,8.852,34.056,19.359,46.034,18.415,20.946,39.629,35.719,56.2,59.62,27.165,39.207,49.863,93.153,46.173,145.985-2.558,36.609-19.67,60.582-41.439,83.5-9.148,9.635-16.574,16.452-17.058,32.1-.78,24.841,7.191,51.127,13.756,74.159,23.493,82.421,56.859,162.123,93.98,236.54,18.548,37.189,38.584,74.263,63.176,105.988,16.11,20.83,37.831,45.624,62.395,45.595,28.445,0,58.543-12.53,86.193-21.9,51.646-17.508,102.663-37.749,153.477-58.515q176.269-72.064,349.225-155.8c81.216-39.389,164.157-78.837,240.515-131.2a276.275,276.275,0,0,0,41.977-35.808c13.923-14.218,31.2-20.576,48.716-25.316,108.726-29.43,227.842-6.836,337.019,7.331,27.712,3.589,55.423,7.2,83.214,9.71,23.891,2.162,52.492,8.36,75.71-.953,45.752-18.328,5.756-85.879-11.153-113.4C1683.6,1268.4,1606.785,1186.4,1535.591,1102.7c-33.85-39.865-67.957-79.625-99.967-121.745C1418.955,959.055,1386.089,923.446,1386.2,894.825Z" transform="translate(2188.254 2476.088) rotate(180)" fill="rgba(0,0,0,0)" stroke="#c1c8d8" stroke-miterlimit="10" stroke-width="2"/>
      <path id="Shape-2" data-name="Shape" d="M1305.586,823.439c18.248-34.546,50.264-60.079,76.84-84.11,38.244-34.594,77.69-67.265,116.543-100.878,36.738-31.789,73.553-63.933,107.575-100.031,20.745-22.012,46.775-48.336,56.6-80.893,21.315-70.567-93.354-59.861-121.662-61.707-70.377-4.568-150.161-5.615-215.274-42.771-40.656-23.2-57.358-61.678-48.687-115.1,3-18.482,8.4-34.261,1.561-52.646-7.907-21.279-26.091-34.546-42.763-43.911-52.222-29.34-113.951-35.574-170.56-40.761-58.482-5.358-119.412-9.132-176.016-5.216-22.634,1.561-48.687-7.3-71.092-14.095-34.466-10.469-68.581-22.541-102.881-33.775C646.07,24.711,574.562,2.708,502.054.2,449.707-1.6,395.127,8.2,351.576,46.085c-44.136,38.419-63.719,97.975-88.2,154.59C221.1,298.555,164.011,417.562,66.216,438.242c-14.829,3.141-29.081,1.437-43.895,2.208-7.618.391-16.289,1.628-20.152,10.792-10.029,23.792,17.455,67.294,26.7,85.518,25.553,50.362,54.283,98.258,81.061,147.652,21.27,39.219,48.226,82.8,56.453,129.285,9.983,56.411-55.243,96.557-78.182,136.28-39.765,68.882,35.575,108.13,72.719,140.972,42.655,37.705,77.862,106.493,39.625,164.83-14.627,22.31-32.625,35.6-39.157,64.714-10.216,45.528-2.49,97.556,5.8,142.561,12.484,67.654,32.252,134.577,59.114,195.722,19.247,43.777,51.177,112.422,97.936,107.274,31.477-3.436,63.477-15.988,94.127-27.084,45.892-16.607,91.206-35.536,136.281-55.2,104.058-45.256,206.958-95.162,307.834-150.054,68.833-37.467,260.833-190.585,275.281-196.046,43.075-16.274,92.051-13.409,136.461-10.887,59.07,3.352,117.854,12.029,176.586,20.071,27.957,3.807,56.055,8.461,84.155,10.336,20,1.333,46.275,2.475,63.8-11.715,34.2-27.684-3.9-91.028-19.661-117.827-48.273-82.158-109.339-153.306-166.6-226.052-28.1-35.72-56.624-71.375-82.13-109.957C1320.094,876.057,1294.307,844.776,1305.586,823.439Z" transform="translate(2128.157 2410.205) rotate(180)" fill="rgba(0,0,0,0)" stroke="#c1c8d8" stroke-miterlimit="10" stroke-width="2"/>
      <path id="Shape-3" data-name="Shape" d="M1239.81,766.445c49.835-69.127,114.539-121.246,173.9-178.981,29.8-28.987,48.882-69.655,74.581-104.178,13.368-17.953,30.055-40.658,32.635-65.685,6.883-66.95-96.47-57.9-127.4-60.439-59.808-4.931-127.373-8.67-181.632-42.837-33.151-20.886-49.476-55.165-43.28-100.223,2.747-19.991,7.024-36.974,0-56.6-7.117-19.883-21.944-33.917-36.959-44.437-43.147-30.253-96.766-39.925-145.345-47.131a963.348,963.348,0,0,0-171.784-9.8c-50.256,1.609-100.27-16.488-149.34-28.416C600.181,11.919,534-1.874,467.478.21,414.942,1.866,361.994,14.879,317.086,49.464c-45.637,35.222-73.075,87.94-97.813,144.828-37.4,86-84,201.241-166.04,233.9-11.932,4.759-23.052,5.283-35.359,6.112-5.978.4-13.7.524-16.661,8.13-7.136,18.317,19.233,53.825,26.592,66.194,23.489,39.511,48.95,77.236,73.027,116.219,22.474,36.392,46.956,74.319,60.92,116.966,22.218,67.921-48.812,107.636-46.817,172.355,1.24,40.182,32.775,69,57.748,88.931,30.749,24.512,75.023,40.629,90.406,85.36,11.464,33.319-6.524,52.712-20.375,77.992-23.473,42.838-25.073,100.906-22.631,150.492,3.293,67.007,16.162,135,38.066,196.595,9.918,27.925,22.076,56.964,39.973,78.653,16.774,20.324,32.647,25.532,55.059,21.372,68.61-12.756,137.884-48.311,203.682-80.068,82.665-39.905,164.191-83.962,243.282-133.53,53.932-33.8,109.081-69.568,156.418-116.27,12.338-12.176,24.969-25.407,33.994-41.467,6.82-12.071,9.71-22.037,21.211-28.929,34.071-20.419,81.464-15.078,117.969-12.956,58.377,3.379,116.463,12.376,174.476,20.477,33.853,4.759,97.625,19.734,124.658-16.184,23.333-31.015-4.823-83.895-19.205-111.216-36.381-69.092-83.18-129.731-126.6-192.169-19.9-28.615-25.6-45.859-42.042-77.671-1.961-3.787-4.473-8.15-6.835-12.984-2.431-4.97-4.629-10.476-5.245-15.727C1227.643,783.583,1233.692,774.969,1239.81,766.445Z" transform="translate(2072.655 2359.34) rotate(180)" fill="rgba(0,0,0,0)" stroke="#c1c8d8" stroke-miterlimit="10" stroke-width="2"/>
      <path id="Shape-4" data-name="Shape" d="M1144.256,693.5c46.049-61.124,101.527-111.34,150.963-168.541,22.166-25.646,44.55-52.549,61.44-83.836,9.085-16.824,18.727-38,16.226-58.914-7.188-60.019-92.192-54.6-126.534-58.113-51.027-5.16-109.65-10.362-154.773-42.729-29.557-21.2-40.641-52.5-35.122-92.876,5.924-43.308-7.321-74.747-37.464-98.907-37.791-30.267-85.5-42.6-129.374-51.368A732.077,732.077,0,0,0,729.667,24.3c-52.082,1.219-102.542-9.432-154.279-16.357-68.6-9.174-139.4-13.7-207.22,5.106C309.116,29.423,255.777,65.51,215.792,121.318c-41.764,58.247-62.44,131.631-96.351,196.07C98.286,357.582,68.794,410.75,29.275,426.375,16.1,431.586-7.931,424.555,2.6,450.187,8.615,464.849,19.878,477.71,28.775,489.7c14.377,19.368,29.23,38.2,43.848,57.3C103.78,587.717,137.146,629.3,160.5,677.515c29.424,60.7-14.314,107.424-8.983,168.976,2.864,33.124,21.732,59.561,41.7,80.33,12.917,13.452,27.05,25.1,41.483,35.973,15.065,11.36,32.9,20.012,46.042,34.693,18.727,20.892,10.6,45.624,7.087,72.632a711.53,711.53,0,0,0-4.046,143.55c4.277,58.675,14.306,119.027,35.434,172.348,8.219,20.759,18.631,42.771,34.092,56.684s31.454,12.965,49.17,8.774c52.55-12.385,104.992-41.2,154.842-68.517,62.392-34.191,123.56-72.4,181.972-115.875,40.32-30.009,80.774-62.429,114.506-103.113,9.811-11.842,19.145-24.521,26.693-38.679,5.182-9.71,7.961-22.235,15.469-29.533,23.493-22.778,70.658-15.977,98.209-14.652,54.986,2.639,109.105,15.186,164.021,18.234,29.971,1.667,76.909,5.859,98.92-25.285,20.7-29.276,1.951-75.385-10.42-103.593-24.312-55.465-56.976-104.88-86.252-156.439-12.035-21.217-25.226-43.414-33.023-67.641C1120.49,724.793,1132.456,709.167,1144.256,693.5Z" transform="translate(1996.357 2281.886) rotate(180)" fill="rgba(0,0,0,0)" stroke="#c1c8d8" stroke-miterlimit="10" stroke-width="2"/>
      <path id="Shape-5" data-name="Shape" d="M1065.891,640.169c36.654-53.787,80.841-101.534,117.759-156.2,21.61-32.011,58.825-85.827,42.113-130.958-18.335-49.591-82.244-50.943-119.186-54.939-43.969-4.757-95.6-11.255-133.231-42.22-11.9-9.789-22.039-22.746-26.337-39.813-4.6-18.264.429-34.247,1.084-52.532,1.372-38.356-17.39-69.15-42.222-90.3-35.094-29.9-78.977-44.036-120.427-53.891A605.3,605.3,0,0,0,642.914,2.959C597.2,3.15,551.966,1.913,506.2.485c-59.847-1.9-120.535,1.17-178.588,20.567-57.187,19.121-109.18,54.957-150.022,107.669-39.843,51.441-66.725,114.309-90.269,178.351C73.965,343.422,51.4,397.743,19.532,416.1c-14.177,8.175-28.084,7.614-13.015,28.866,18.974,26.761,44.545,48.232,66.523,71.12,31.7,33.03,64.2,66.707,90.807,105.976,16.993,25.076,24.566,49.411,23.4,81.88-.905,24.738-5.007,49.211-2.933,74.041,4.855,58.277,42.471,98.241,75.724,135.457,21.391,23.936,40.927,42.193,51.939,76.239,13.023,40.24,18.5,84.019,27.194,125.8,9.561,45.882,20.6,93.609,41.473,134.021,18.578,35.979,41.176,52.112,74.984,42.414,52.742-15.107,104.731-52.322,151.548-86.75,47.657-35.026,94.5-74.411,133.989-122.557,21.322-26,35.873-56.527,54.809-84.458,23.813-35.065,77.7-21.785,109.719-18.817,53.155,4.928,220.412,41.8,204.979-77.627-6.442-49.849-31.81-95.854-50.363-139.842-7.689-18.255-18.818-40.164-20.557-61.084C1037.854,678,1054.871,656.364,1065.891,640.169Z" transform="translate(1929.317 2227.56) rotate(180)" fill="rgba(0,0,0,0)" stroke="#c1c8d8" stroke-miterlimit="10" stroke-width="2"/>
      <path id="Shape-6" data-name="Shape" d="M992.206,605.43c28.01-48.742,61.531-94.79,85.565-147.435,15.592-34.094,30.9-79.646,10.789-115.721-22.7-40.709-72.757-50.2-109.537-55.386-37.9-5.339-83.133-9.833-114.106-40.7-9.853-9.832-17.977-23.09-19.49-38.967-1.458-15.229,2.659-30.458,1.295-45.963-3.056-34.817-20.354-63.5-42.655-84.311C738.091,15.4,639.9,1.709,560.3.1c-39.844-.8-80.849,3.4-120.95,6.405-52.036,3.9-104.153,12.279-153.778,32.467C180.052,81.879,109.33,177.041,59.936,295.455c-15.547,37.273-27.44,77.6-51.8,107.554-12.558,15.467-9.814,26.575,3.025,40.68,20.073,22.044,44.56,38.89,66.841,57.289,31.69,26.165,64.057,52.72,92.082,84.063,19.317,21.606,33.031,42.424,37.193,74.821,2.97,23.1,2.276,46.639,4.062,69.882,3.4,44.158,15.038,87.975,35.642,124.6,16.371,29.03,35.861,55.414,56,80.571a607.236,607.236,0,0,1,68.22,104.9c26.364,51.456,63.41,146.369,125.51,121.251,68.492-27.717,132.69-98.142,176.632-166.375,14.757-22.91,26.872-51.007,46.774-67.9,29.8-25.251,60.027-24.367,95.466-24.261,53.059.143,168.512,14.2,169.759-82.807.491-38.434-13.135-74.774-19.661-111.742C958.327,666.574,973.076,638.648,992.206,605.43Z" transform="translate(1874.985 2188.254) rotate(180)" fill="rgba(0,0,0,0)" stroke="#c1c8d8" stroke-miterlimit="10" stroke-width="2"/>
      <path id="Shape-7" data-name="Shape" d="M927.418,571.628C955.123,508.1,1017.255,403.714,970,333.073c-24.96-37.338-69.107-51.362-106.142-59.722-29.8-6.762-65.746-9.3-88.264-37.969-16.551-21.077-9.2-51.752-15.545-78.137-7.87-32.714-25.935-59.475-48.133-79.591C649.88,21.432,563.627,4.178,489,.507,411.5-3.3,326.11,14.494,253.179,48.729c-90.933,42.7-159.058,123.544-206.7,225.93-8.785,18.9-16.778,38.293-25.218,57.421-5.67,12.831-14.079,25.243-18.549,38.74-7.441,22.5,1.326,40.9,15.381,55.565,20.218,21.115,45.053,36.144,68.1,51.99,31.52,21.686,63.741,42.983,93.061,68.425,19.7,17.121,40.326,35.563,47.377,65.267,4.812,20.26,5.811,41.717,5.639,62.7-.375,44.989,1.561,81.37,18.767,122.573,28.314,67.645,71.854,128.471,117.85,179.081,36.1,39.719,93.217,101.42,145.813,74.864,47.19-23.778,74.791-80.695,105.887-126.711,15.117-22.37,32.1-42.8,52.049-58.714,25.155-20.06,48.836-28.477,78.64-31.759,50.162-5.527,125.8-6.962,141.3-80.391,5.726-27.1,2.457-55.166,5.46-82.616C901.967,634.794,913.44,603.673,927.418,571.628Z" transform="translate(1831.059 2150.107) rotate(180)" fill="rgba(0,0,0,0)" stroke="#c1c8d8" stroke-miterlimit="10" stroke-width="2"/>
      <path id="Shape-8" data-name="Shape" d="M858.151,536.99c19.729-69.511,45.647-157.113-2-218.891-23.081-29.928-55.547-46.659-86.963-59.162-22.5-8.96-58.236-11.6-72.033-39.145-10.133-20.272-11.537-48.239-20.7-69.958a199.153,199.153,0,0,0-54.072-73.709C564.056,25.956,488.094,6.567,418.821,1.016,268.3-11.029,115.147,84.9,34.6,242.741,10.585,289.789-20.415,339.866,18.4,387.931c42.373,52.437,106.206,77,156.779,114.264,19.323,14.225,43.948,31.327,54.728,57.084,6.485,15.483,6.93,34.91,7.226,51.952.779,43.41,3.734,82.451,18.033,122.957,22.091,62.6,57.316,120.348,97.233,167.654,34.812,41.25,84.458,89.725,135.017,59.988,38.764-22.852,63.347-71.358,93.468-107.113,33.523-39.821,74.972-66.654,120.494-79.762,44.283-12.716,92.853-21.3,116.191-75.347,8.005-18.539,16.37-42.54,19.371-63.064a747.859,747.859,0,0,1,21.21-99.552Z" transform="translate(1790.601 2113.115) rotate(180)" fill="rgba(0,0,0,0)" stroke="#c1c8d8" stroke-miterlimit="10" stroke-width="2"/>
      <path id="Shape-9" data-name="Shape" d="M789.035,500.489c9.132-70.191,10.141-143.381-32.264-198.7-19.791-25.808-44.809-44.144-70.107-60.757-18.611-12.223-37.835-22.533-51.737-42.573-12.88-18.554-22.67-40.1-35.1-59.138A271.986,271.986,0,0,0,541.7,74.632C486.309,30.564,418.932,9.953,354.473,2.8c-31.2-3.475-65.052-5.284-96.046,4.189-29.933,9.139-59.532,23.591-87.052,40.44C112.869,83.219,62.163,135.627,25.4,201.886.2,247.334-13.43,291.525,19.21,337.631,56.007,389.6,113.7,418.275,161.258,452c32.616,23.133,69.171,45.81,75.264,94.971,4.855,39.118,8.791,76.246,21.344,113.222,18.68,54.54,46.147,103.945,80.771,145.285,31.664,37.662,71.722,69.62,117.014,49.5,35.885-15.965,63.726-51.732,95.079-77.3,34.94-28.559,73.329-44.306,113.755-56.967,36.329-11.424,70.536-28.979,94.017-66.25a186.01,186.01,0,0,0,13.558-24.428c4.728-10.866,4.36-21.648,5.289-33.834C779.768,564.045,784.9,532.258,789.035,500.489Z" transform="translate(1753.607 2076.125) rotate(180)" fill="rgba(0,0,0,0)" stroke="#c1c8d8" stroke-miterlimit="10" stroke-width="2"/>
      <path id="Shape-10" data-name="Shape" d="M717.782,461.229c-.78-66.671-13.918-129.68-49.9-181.638-15.384-22.227-33.754-40.534-50.682-60.9-13.63-16.415-26.511-31.674-42.184-45.207-37.177-32.039-67.393-73.5-106.9-102.028C415.37,33.313,354.956,12.23,295.01,3.8,265.739-.318,235.5-1.758,205.885,2.894c-25.431,3.995-49.793,18.022-72.39,32.367C89.207,63.374,46.2,103.326,17.448,153.873c-63.4,111.436,61.6,192.461,125.756,239.908,29.505,21.826,74.589,47.1,86.676,90.338,8.64,30.885,13.9,62.294,25.029,92.226,29.888,80.382,90.559,174.924,171.414,162.338,34.591-5.378,66.122-27.223,98.421-41.889,33.256-15.1,67.577-23.523,102.14-32.763,32.3-8.629,58.052-20.91,78.917-53.836,9.973-15.721,9.092-34.546,9.981-53.836C717.237,524.672,718.134,492.806,717.782,461.229Z" transform="translate(1717.774 2042.597) rotate(180)" fill="rgba(0,0,0,0)" stroke="#c1c8d8" stroke-miterlimit="10" stroke-width="2"/>
      <path id="Shape-11" data-name="Shape" d="M647.384,418.01c-12.986-100.634-61.229-210.5-132.167-268.94C431.783,80.322,341.389,22.427,241.7,5.789,195.479-1.929,144.849-5.725,101.237,19.51,68.046,38.7,29.492,67.394,11.225,107.737c-44.69,98.683,54.712,177.242,111.345,222.9,30.49,24.578,69.3,48.528,92.282,84.419,13.333,20.807,20.139,48.338,30.9,71.193,32.621,69.261,86.32,125.125,153.209,135.116,30.927,4.615,62.076-1.095,92.775-5.633,31.419-4.644,63.232-7.167,94.453-13.64,24.925-5.176,54.3-13.94,63.479-46.492C661.247,514.571,652.685,459.106,647.384,418.01Z" transform="translate(1679.627 2007.922) rotate(180)" fill="rgba(0,0,0,0)" stroke="#c1c8d8" stroke-miterlimit="10" stroke-width="2"/>
      <path id="Shape-12" data-name="Shape" d="M579.919,371.789c-18.944-94.613-59.058-186.9-126.5-243.384-35.761-29.95-77.274-50.625-117.132-71.052C291.112,34.2,243.906,16.232,195.7,7.318,135.675-3.786,38.454-13.795,7.092,69.676c-31.128,82.852,47.531,156.18,94.046,197.968,29.824,26.77,61.739,51.339,90.233,80.6,15.451,15.866,27.353,34.2,40.428,52.806,36.137,51.556,87.654,92.375,140.164,114.164,50.887,21.123,113.846,30.475,167.567,23.494,23.18-3.006,39.748-13.123,46.758-41.9C596,456.8,587.749,410.872,579.919,371.789Z" transform="translate(1643.787 1977.867) rotate(180)" fill="rgba(0,0,0,0)" stroke="#c1c8d8" stroke-miterlimit="10" stroke-width="2"/>
      <path id="Shape-13" data-name="Shape" d="M506.885,323.186C488.066,239.883,447.48,163.8,388.266,113.8,321.9,57.753,236.435,26.609,157.881,10.772,116.129,2.36,25.649-20.447,4.368,44.827s40.245,129.6,75.655,165.013c42.977,42.913,89.311,84.347,135.6,122.849,40.2,33.477,83.111,67.7,126.668,93.555a414.655,414.655,0,0,0,76.461,35.781c19.482,6.714,44.254,16.729,64.679,11.731C534.939,461.133,515.885,363.016,506.885,323.186Z" transform="translate(1602.179 1954.747) rotate(180)" fill="rgba(0,0,0,0)" stroke="#c1c8d8" stroke-miterlimit="10" stroke-width="2"/>
      <path id="Shape-14" data-name="Shape" d="M428.79,272.81C387.5,115.275,256.675,37.8,130.713,10.79,101.443,4.521,19.393-18.081,3.029,30.042-12.829,76.7,37.6,132.036,61.2,158.254c73.149,81.235,163.519,141.468,249.158,201.139,26.731,18.626,74.94,59.045,108.1,40.4C454.46,379.507,437.344,305.477,428.79,272.81Z" transform="translate(1562.875 1929.317) rotate(180)" fill="rgba(0,0,0,0)" stroke="#c1c8d8" stroke-miterlimit="10" stroke-width="2"/>
      <path id="Shape-15" data-name="Shape" d="M341.411,213.595C305.5,97.582,201.057,31.044,105.031,9.1,81.512,3.736,21.777-12.976,3.963,19.4c-16.485,29.948,22.856,73.342,37.569,90.585,32.767,38.4,71.6,70.03,109.963,100.435,35.471,28.131,71.323,56.965,108.65,80.755,19.658,12.524,56.527,39.245,78.868,19.908C363.07,290.287,349.384,239.356,341.411,213.595Z" transform="translate(1517.791 1900.422) rotate(180)" fill="rgba(0,0,0,0)" stroke="#c1c8d8" stroke-miterlimit="10" stroke-width="2"/>
      <path id="Shape-16" data-name="Shape" d="M239.317,148.485C211.947,72.724,138.645,23.527,73.983,7.178,56.585,2.785,18.979-8.6,4.3,11.634-9.211,30.267,12.566,57.584,22.231,70.2,65.069,126.118,127.8,176.067,185.274,206.746c14.45,7.713,40.428,22.851,55.294,7.283C255.817,198.044,245.6,165.883,239.317,148.485Z" transform="translate(1462.304 1869.207) rotate(180)" fill="rgba(0,0,0,0)" stroke="#c1c8d8" stroke-miterlimit="10" stroke-width="2"/>
      <path id="Shape-17" data-name="Shape" d="M127.45,77.363c-15.422-37.62-55.731-66-89.12-75.043C14.832-4.039-13.413,1.455,7.065,34.2,27.41,66.707,65.158,96.384,97.152,109.542,121.561,119.577,140.694,109.678,127.45,77.363Z" transform="translate(1399.882 1829.91) rotate(180)" fill="rgba(0,0,0,0)" stroke="#c1c8d8" stroke-miterlimit="10" stroke-width="2"/>
      <path id="Shape-18" data-name="Shape" d="M745.771,591.075c.99-74.329,33.35-151.567,17.369-227.3-13.124-62.2-79.193-67.393-118.834-95.57-31.5-22.388-49.371-62.046-66.4-100.1-15.3-34.161-29.051-69.35-45.173-102.951C522.292,43.437,504.37.782,481.737.013c-21.667-.742-41.536,32.5-54.123,52.146C411.2,77.77,396.655,105.074,380.72,131.1c-26.854,43.891-59.07,76.378-95.97,107.125Q221.773,290.7,156.716,339.592C124.783,363.663,92.632,387.553,61.938,414,42.69,430.6.2,461.733,0,492.328c-.094,14.6,11.238,30.766,18.879,42.436,12.928,19.753,27.665,37.813,42.447,55.487,27.532,32.915,56.232,64.338,84.617,96.141,36.852,41.272,72.048,81.867,104.44,128.73,33.491,48.5,65.486,98.6,98.135,148.02,22.111,33.477,44.2,71.071,76.093,91.614,39.947,25.678,72.736-1.4,113.135-1.712,34.752-.276,32.189-98.575,36.606-125.908,4.432-27.666,14.2-53.42,17.983-81.149,4.72-34.618,4.782-70.035,5.943-105.023,1.409-42.8,1.965-83.54,39.441-99.86,21.325-9.273,44.389-11.222,66.468-16.777C718.488,620.718,745.46,614.556,745.771,591.075Z" transform="translate(767.566 2083.06) rotate(180)" fill="rgba(0,0,0,0)" stroke="#c1c8d8" stroke-miterlimit="10" stroke-width="2"/>
      <path id="Shape-19" data-name="Shape" d="M690.539,553.577c3.642-62.307,25.163-142.043,4.812-206.355-17.387-54.958-71.763-62.083-108.377-90.952-30.226-23.813-43.682-62.779-58.79-101.058C516.063,124.5,504.308,93.5,490.549,63.775,480.408,41.868,464.924,4.883,443.84.349c-18.958-4.077-39.282,28.574-49.922,45.186-15.522,24.25-28.8,50.586-42.512,76.369-24.094,45.29-48.772,86.018-84.029,119.288-35.421,33.408-74.173,58.4-113.338,84.4-30.639,20.345-61.123,41.281-90.234,64.769-21.687,17.486-52.865,39.869-62.787,71.054C-6.842,486.085,33,527.022,44.747,541.471c24.181,29.708,49.8,57.6,75.476,85.311,31.294,33.775,63.588,63.311,91.225,101.841C260.878,797.5,302.2,883.287,365.8,934.486c38.361,30.876,81.052,38.772,123.72,34.153,16.9-1.829,20.952-30.947,23.081-47.929,3.542-28.213,3.986-56.911,6.7-85.238,2.551-26.517,8.213-51.71,12.777-77.712C536.7,731.414,538,704.421,541.4,677.9c2.106-16.468,4.189-35.633,13.4-48.872,9.532-13.706,25.257-19.449,39-23.813C619.612,597.1,687.966,597.544,690.539,553.577Z" transform="translate(729.419 2058.784) rotate(180)" fill="rgba(0,0,0,0)" stroke="#c1c8d8" stroke-miterlimit="10" stroke-width="2"/>
      <path id="Shape-20" data-name="Shape" d="M610.744,496.286c6.127-57.188,14.7-128.417-10.255-181.106-20.4-43.082-63.908-52.375-94.985-80.446-25.847-23.344-35.611-60.47-48.435-94.971-10.527-28.3-21.11-56.722-33.87-83.652C413.522,35.689,401.051,8,381.837.873c-16.427-6.087-34.987,21.184-44.093,34.758-15.507,23.134-28.15,49.055-40.706,74.634-20.54,41.854-39.442,86.563-68.676,120.607-28.407,33.036-62.152,52.537-96.529,74.463-26.331,16.8-52.5,34.245-77.308,54.277C35.474,374.987,11.869,393.2,1.94,418.78c-8.584,22.059,13.454,48.17,24.466,63.733,18.183,25.683,38.366,49.244,58.261,72.9,21.477,25.522,45.264,49.065,66.046,75.214,43.7,55.024,78.619,115.956,132.483,158.115,34.883,27.309,81.825,52.117,123.062,47.656,29.655-3.215,27.705-83.328,30.554-108.926,4.683-41.854,13.727-85.83,28.09-124.383,12.339-33.036,41.659-43.224,68.63-50.631,16.9-4.652,34.6-7.167,50.946-14.354C603.4,529.77,608.176,520.258,610.744,496.286Z" transform="translate(671.613 2027.574) rotate(180)" fill="rgba(0,0,0,0)" stroke="#c1c8d8" stroke-miterlimit="10" stroke-width="2"/>
      <path id="Shape-21" data-name="Shape" d="M519.726,430.176c3.647-48.35,2.828-105.524-20.8-147.348-20.707-36.634-57.573-46.279-83.794-75.138-20.461-22.515-28.5-59.226-39.506-89-13.45-36.4-32.3-103.644-66.228-117.345-31.558-12.737-64.571,68.623-76,92.883-18.09,38.4-33.219,80.51-55.16,115.97-18.894,30.529-44.209,47.405-71.078,65.544C72.9,298.905,20.89,326.373,2.573,371.516c-13.653,33.639,30.749,83.648,45.9,106.955,15.856,24.347,27.8,53.206,44.158,76.694,25.822,37.064,67.665,66.905,102.212,89.678,33.592,22.151,77.207,46.668,115.308,45.208,25.042-.954,29.806-48.159,35.148-71.218,7.655-32.78,17.832-62.154,39.695-84.449,22.252-22.7,48.481-33.39,76.054-42.75,14.153-4.77,30.3-8.491,42.959-18.127C518,463.023,518.321,448.761,519.726,430.176Z" transform="translate(601.106 1988.269) rotate(180)" fill="rgba(0,0,0,0)" stroke="#c1c8d8" stroke-miterlimit="10" stroke-width="2"/>
      <path id="Shape-22" data-name="Shape" d="M426.529,356.069c-.2-41.771-8.027-86.313-31.227-118.533-19.323-26.838-49.57-35.809-68.068-63.244-14.652-21.721-22.11-52.213-31.92-77.437-12-30.911-28.962-84.908-58.8-95.636C207.4-9.225,181.646,50.251,170.482,73.786c-16.349,34.508-29.585,71.086-46.082,105.5-12.924,27-28.728,44.4-49.773,61.8-24.7,20.439-59.17,43.081-72.364,76.9-9.514,24.483,13.516,63.6,21.877,85.174,5.605,14.487,10.737,29.2,13.555,44.9,2.2,12.228,2.414,23.544,8.774,34.043,16.011,26.407,51.124,29.855,74.947,38.561,31.64,11.553,65.212,24.682,98.323,27.188,20.351,1.566,30.737-21.322,42.352-37.422,13.726-19.034,33.158-32.723,50.131-47.087,22.4-18.987,46.775-30.8,71.993-42.887,11.375-5.458,24.738-10.813,33.547-21.664C426.965,387.54,426.6,371.145,426.529,356.069Z" transform="translate(532.899 1942.031) rotate(180)" fill="rgba(0,0,0,0)" stroke="#c1c8d8" stroke-miterlimit="10" stroke-width="2"/>
      <path id="Shape-23" data-name="Shape" d="M347.108,286.19c-4.022-35.081-16.553-68.612-37.72-93.412-16.226-19.04-37.775-29.76-50.8-52.637C246.453,118.815,238,94.568,227.978,71.767,217.371,47.662,201.613,7.373,177.15.814c-26.365-7.064-46.675,33.577-57.921,56.1-14.207,28.466-25,59.091-37.7,88.537A252,252,0,0,1,45.312,205c-15.143,18.478-35.678,36.182-43.34,61.586-6.773,22.506,5.9,49.733,8.137,72.553,2.393,24.381-1.8,49.99,11.464,70.925,27.351,43.174,96,35.168,135.251,36.092,38.725.953,69.86-25.466,101.2-50.6,20.7-16.594,42.255-30.645,63.478-46.106C343.132,333.676,350.645,317.063,347.108,286.19Z" transform="translate(479.725 1896.949) rotate(180)" fill="rgba(0,0,0,0)" stroke="#c1c8d8" stroke-miterlimit="10" stroke-width="2"/>
      <path id="Shape-24" data-name="Shape" d="M290.356,222.183c-11.893-50.823-49.035-77.836-75.587-116.243C193.044,74.5,176.754,9.382,140.165.767,98.624-9.009,73.757,77.269,59.314,110.56,43.289,147.482,14.748,177.515,2.88,216.6-3.362,237.114,2,256.257,5.32,276.761,8.961,299.286,11.7,322.3,24.269,340.424c24.745,35.664,73.064,35.415,107.872,36.4,36.027,1.02,67.9-23.42,96.6-47.812C259.188,303.177,302.536,274.307,290.356,222.183Z" transform="translate(447.361 1853.027) rotate(180)" fill="rgba(0,0,0,0)" stroke="#c1c8d8" stroke-miterlimit="10" stroke-width="2"/>
      <path id="Shape-25" data-name="Shape" d="M242.7,166.786c-13.4-36.21-41.559-65.648-64.41-93.437C159.212,50.18,138.7,3.543,109.621.218,75.443-3.7,54.731,46.1,41.283,76.639c-13.236,30-32.307,61.684-39.636,94.616-7.642,34.306,12.71,80.513,32.119,104.789,21.648,27.066,57.064,37.067,87.455,35.988,31.819-1.1,61.016-23.466,85.114-46.676C232.1,240.55,258.279,208.82,242.7,166.786Z" transform="translate(419.618 1811.405) rotate(180)" fill="rgba(0,0,0,0)" stroke="#c1c8d8" stroke-miterlimit="10" stroke-width="2"/>
      <path id="Shape-26" data-name="Shape" d="M195.311,126.447c-12.8-30.117-34.988-55.594-55.446-78.319C124.076,30.583,100.78.75,78,.019,52.945-.79,31.708,24.253,21.747,49.92,11.929,75.236,1.582,106.977.113,134.75c-3.2,60.48,61.8,128.234,110.6,122.717C156.979,252.234,220.832,186.459,195.311,126.447Z" transform="translate(390.716 1777.884) rotate(180)" fill="rgba(0,0,0,0)" stroke="#c1c8d8" stroke-miterlimit="10" stroke-width="2"/>
      <path id="Shape-27" data-name="Shape" d="M152.789,96.538C135.131,57.3,92.238,1.356,52.53.027,6.95-1.492-4.493,60.761,1.448,105.876c6.035,46.043,58.586,112.69,100.487,103.685C142.833,200.773,173.717,143.075,152.789,96.538Z" transform="translate(365.287 1751.296) rotate(180)" fill="rgba(0,0,0,0)" stroke="#c1c8d8" stroke-miterlimit="10" stroke-width="2"/>
      <path id="Shape-28" data-name="Shape" d="M115.092,75.168C100.142,42.313,68.238,1.275,34.962.03c-39.65-1.469-38.9,51.094-29.91,83.8C14.4,117.8,55.578,175.809,90.294,166.651,124.052,157.709,129.419,106.658,115.092,75.168Z" transform="translate(345.636 1736.271) rotate(180)" fill="rgba(0,0,0,0)" stroke="#c1c8d8" stroke-miterlimit="10" stroke-width="2"/>
      <path id="Shape-29" data-name="Shape" d="M79.721,54.045C69.852,30.6,45.157.971,21.674.023-7.026-1.117-1.446,40.571,5.969,60.691c8.814,23.941,38.357,65.541,63.15,58.8C93.528,112.855,87.863,73.361,79.721,54.045Z" transform="translate(325.984 1718.929) rotate(180)" fill="rgba(0,0,0,0)" stroke="#c1c8d8" stroke-miterlimit="10" stroke-width="2"/>
      <path id="Shape-30" data-name="Shape" d="M343.4,673.362c63.523,47.035,135.333,85.861,203.051,125.325,98.96,57.658,199.378,113.774,303.36,156.724,55.749,23.027,127.989,56.221,187.807,38.183,21.871-6.589,41.816-26.534,61.425-39.491,27.04-17.867,54.479-34.849,81.869-51.868,54.946-34.116,110.063-67.89,164.066-104.195,26-17.486,51.235-39.51,78.306-54.428,15.821-8.724,34.752-4.642,51.656-4.091,39.157,1.284,78.291,3.72,117.423,5.794,47.866,2.53,95.842,5.223,143.762,4.224,21.617-.462,74.547,4.224,86.446-18.5,6.4-12.235-8.686-34.3-15.68-44.5-12.842-18.761-27.6-35.666-42.166-52.4-33.683-38.7-69.457-75.558-99.4-118.789-15.384-22.224-35.539-49.376-25.5-79.716,10.137-30.644,27.695-57.178,38.408-87.716,12.335-35.142,17.455-71.714,23.274-108.979,4.312-27.542,14.355-51.945,23.8-77.334,10.433-28.066,21.239-56.369,28.483-85.966,4.787-19.551,12.515-54.723-4.234-67.1-23.8-17.6-68.42-3.352-95.546,1.836-37.488,7.154-74.7,16.268-112.091,24.117-27.141,5.708-54.377,11.968-81.971,12.635-44.482,1.075-89.113-2.645-133.478-6.108-82.15-6.412-163.711-15.108-246.138-15.108-72.215,0-239.1,101.957-278.16,119.911-77.97,35.835-158.016,69.811-231.8,117.494-19.96,12.91-50.681,30.111-61.183,56.683-6.479,16.373-3.5,25.839-18.783,36.39-20.849,14.394-47.562,20.046-70.641,26.487-37.169,10.37-74.626,19.151-111.966,28.541-75.52,18.941-150.528,40.365-225.733,60.981-22.736,6.232-50.244,7.611-71.92,18.59-13.972,7.051-12.523,15.926-1.707,26.638C27.413,536.422,54,546.858,76.413,557.58c32.83,15.707,66.2,29.721,99.592,43.535s66.946,27.2,100.349,41.037C298.409,651.275,323.57,658.682,343.4,673.362Z" transform="translate(1939.715 998.76) rotate(180)" fill="rgba(0,0,0,0)" stroke="#c1c8d8" stroke-miterlimit="10" stroke-width="2"/>
      <path id="Shape-31" data-name="Shape" d="M250.035,623.713c67.194,47.131,141.781,84.678,213.686,121.311,92.025,46.913,186.132,90.881,283.1,120.206,56.927,17.207,124.1,36.2,182.269,16.473,20.752-7.041,36.256-22.865,54.045-36.833,20.277-15.94,41.333-30.544,62.39-44.921q65.017-44.389,131.408-85.745c23.443-14.662,49.244-34.3,75.734-39.386,21.057-4.046,44.975,1.81,66.122,3.515,38.089,3.068,76.17,6.231,114.275,8.917,43.97,3.1,88.063,5.954,132.128,5.46,24.559-.276,66.718,4.288,84.087-15.082,15.152-16.9-40.015-78.028-49.717-89.642-30.3-36.26-62.163-70.788-90.365-109.564-16.666-22.865-36.959-50.675-43.985-80.983-5.981-25.829,5.56-55.255,12.377-79.134,8.524-29.906,15.4-60.908,25.307-90.185,8.82-26.086,22.858-49.323,35.188-73.037,13.562-26.086,27.3-52.6,37.363-81.058,6.168-17.511,16.378-46.836,4.118-63.528-14.163-19.245-57.819-6.669-75.765-3.93-36.405,5.64-72.528,14.024-108.683,21.532-60.05,12.461-117.3,23.361-178.451,20.751-79.633-3.411-159.187-11.433-238.8-15.873-29.4-1.658-59.27-4.993-88.7-3.192-16.869,1.04-29.708,7.327-39.524,21.513-13.4,19.359-44.258,30.077-65.721,41.186-33.464,17.311-67.35,33.408-101.147,49.723-74.182,35.822-149.791,70.35-220.143,116.681-22.257,14.653-47.742,30.993-64.207,55.2-9.186,13.5-6.871,26.505-12.478,40.853-7.425,18.874-31.834,27.4-46.426,33.565-28.162,11.928-57.477,19.922-86.566,27.41-65.821,16.94-131.8,28.077-198.688,36.28-15.675,1.905-77.4,8.508-44.983,40.329C45.108,527.7,96.83,544.925,139,564.748,176.985,582.564,215,599.14,250.035,623.713Z" transform="translate(1794.078 959.457) rotate(180)" fill="rgba(0,0,0,0)" stroke="#c1c8d8" stroke-miterlimit="10" stroke-width="2"/>
      <path id="Shape-32" data-name="Shape" d="M176.422,554.882c63.16,41.465,133.127,72.4,201.15,101.991,82.544,35.909,167.153,67.918,253.736,85.849,54.38,11.252,114.339,19.9,168.357,1.2,36.888-12.765,65.428-47.279,97.823-71.019s66.111-46.031,100.83-64.608c21.547-11.529,44.727-23.144,68.7-21.617,58.3,3.691,116.522,12.484,174.88,16.762,38.609,2.854,77.291,5.2,116.013,4.5,23.35-.418,55.431,1.294,76.1-13.7,22.851-16.58-98.823-158.143-110.322-174.077-28.832-39.952-63.745-92.974-58.171-149.792,5.332-54.316,28.437-94.867,54.579-137.425,14.833-24.209,62.4-88.884,44.774-120.369-10.071-18-43.267-11.767-59.038-10.54-31.081,2.416-61.989,7.61-92.905,12.119-45.083,6.535-91.4,16.627-136.672,19.586-31.526,2.054-63.237-.694-94.817-.751-45.282-.076-90.562.347-135.844.837-38.021.418-76.361,0-114.249,4.452-23.554,2.74-41.432,8.894-58.327,26.282-14.7,15.125-36.876,23.981-55.618,33.6-30.948,15.876-62.3,30.592-93.553,45.545-65.428,31.315-131.613,61.973-194.241,101.107-28.589,17.855-76.658,42.853-83.364,86.144-2.421,15.606-4.2,22.354-16.691,31.229-17.73,12.6-38.965,18.274-58.857,23.211-46.374,11.51-94.1,9.789-140.388,21.165-18.854,4.69-43.465,14.81-21.946,37.983,25.116,27.1,61.677,42,91.764,58.738,15.021,8.352,30.495,16.171,44.758,26.369C155.842,537.5,165.218,547.58,176.422,554.882Z" transform="translate(1627.604 899.342) rotate(180)" fill="rgba(0,0,0,0)" stroke="#c1c8d8" stroke-miterlimit="10" stroke-width="2"/>
      <path id="Shape-33" data-name="Shape" d="M122.649,479.519C181,513.2,244.373,537.683,306.607,559.758c69.127,24.486,139.916,44.767,211.644,53.4,49.529,5.979,102.3,7.745,150.37-10.555,30.4-11.576,51.01-35.918,77.168-56.333,39.481-30.855,82.2-55.3,129.627-49.354q79.762,9.983,160.051,14.979c32.286,2.011,64.7,3.519,97.022,2.117,20.438-.877,46.768-2.355,64.548-13.654,23.79-15.132-65.57-130.278-76.709-147.059C1092.7,311.68,1072.453,268,1060.62,216.438c-9.65-42.077,10.063-75.155,30.4-106.631,12.643-19.547,53.5-68.71,40.7-94.1-7.016-14-30.135-13.273-42.551-13.987-23.665-1.354-47.432.057-71.092.677-34.944.954-72.141-5.6-106.789-.324C834.508,13.752,757.917,23.855,680.654,31.855c-42.591,4.405-85.439,8.41-127.648,16.906-15.154,3.052-30.805,6.284-45.163,13.187-9.237,4.434-14.273,11.985-22.067,18.183-37.166,29.5-85.681,44.682-127.538,63.59-55.647,25.134-111.591,49.878-165.756,79.57-28.49,15.618-68.282,33.564-87.886,65.439-5.924,9.63-3.4,17.34-7.124,26.593C93.183,326,80.159,329.188,71.748,332.163c-19.09,6.76-98.994,16.982-62.172,56.643,17.571,18.889,39.956,31.008,59.764,45.854,7.167,5.378,14.163,10.784,20.142,18.04C99.475,464.864,109.328,471.805,122.649,479.519Z" transform="translate(1454.205 836.926) rotate(180)" fill="rgba(0,0,0,0)" stroke="#c1c8d8" stroke-miterlimit="10" stroke-width="2"/>
      <path id="Shape-34" data-name="Shape" d="M117.183,425.632c115.194,54.491,250.2,91.612,375.787,84.421,41.764-2.4,86.7-10.412,122.9-37.826,21.347-16.193,38.408-34.473,64.049-40.323,18.512-4.219,38.445.571,57.066,2.305,26.971,2.514,53.957,4.763,80.968,6.582,33.485,2.219,67.08,3.93,100.627,3.019,23.971-.658,57.074.086,77.9-15.631,24.862-18.746-38.421-106.687-47.325-122.356-21.582-37.982-36.711-74.776-42.178-120.547-1.609-13.335-7.029-27-6.327-40.446.734-13.726,7.663-25.948,14.059-36.74,8.366-14.146,37.391-47.694,29.08-64.946C939.2,33.619,921.958,32.418,913.022,30.4c-16.762-3.815-33.766-5.858-50.632-8.887C833.779,16.349,805.371-.464,776.659.01c-77.21,1.258-155.537,30.482-231.2,46.532-44.982,9.574-90.27,18.264-134.705,31.225-14.06,4.106-28.541,8.354-41.905,15.317-9.326,4.855-15.317,13.517-23.956,18.958-33.126,20.89-71.219,33.568-106.79,47.626-46.178,18.289-92.511,36.026-138.37,55.5-28.744,12.2-65.7,22.938-90.473,45.571-18.09,16.53-5.726,21.471,3.815,36.864,4.874,7.849,3.749,15.584,5.865,24.471,3.028,12.693,11.576,21.827,19.589,30.043,11.052,11.345,25.778,20.692,34.813,34.6,3.187,4.9,3.038,10.974,5.616,15.241C86.455,414.377,106.352,420.512,117.183,425.632Z" transform="translate(1321.278 797.623) rotate(180)" fill="rgba(0,0,0,0)" stroke="#c1c8d8" stroke-miterlimit="10" stroke-width="2"/>
      <path id="Shape-35" data-name="Shape" d="M165.674,363.447c93.495,34.256,197.52,53.762,296.346,44.71C496.4,405,531,397.675,563.028,381.581c14.572-7.3,25.511-15.437,41.48-15.875,37.051-1.01,74.213,2.525,111.262,3.373,26.51.61,53.152.829,79.6-1.772,17.686-1.734,41.6-3.815,56.083-17.047,21.051-19.277-16.95-84.807-24.685-102.912-12.819-30.025-25.535-63.405-20.451-98.142,1.559-10.625,4.32-20.011,4.678-30.845.347-9.31-.616-17.9,2.09-26.8,3.345-11.035,18.222-28.157,13.106-38.316-3.485-6.936-13.824-7.261-20.7-9.479a185.359,185.359,0,0,1-32.56-14.121c-11.072-6.137-20.5-15.617-31.967-20.692C722.343.735,701.5-.036,681.932,0,603.846.154,524.769,18.96,448.662,38.611c-39.631,10.234-79.482,21.145-118,36.667-11.695,4.716-24.95,9.452-35.234,18.161-6.417,5.422-10.768,12.216-18.057,16.3C215.1,144.557,143.1,157.488,76.991,182.635c-17.208,6.546-112.572,39.621-62.71,70.733,30.286,18.9,62.3,27.5,89.935,53.362,8.421,7.861,14.035,14.37,17.325,26.367,2.167,7.985-3.048,3.93,4.233,12.282C134.61,355.4,154.784,359.454,165.674,363.447Z" transform="translate(1247.293 754.846) rotate(180)" fill="rgba(0,0,0,0)" stroke="#c1c8d8" stroke-miterlimit="10" stroke-width="2"/>
      <path id="Shape-36" data-name="Shape" d="M171.565,298.114c109.459,27.961,225.376,29.291,336.563,4.508,28.029-6.242,57.2-4.75,85.573-6.337,27.568-1.52,76.582,1.644,96.606-24.227,14.519-18.754-1.236-58.608-6.685-79.589-6.943-26.726-13.01-54.331-1.61-80.291,6.677-15.2,15.825-29.671,22.987-44.73,3.424-7.192,10.477-18.213,7.537-25.026-4.863-11.239-27.615-15.971-38.655-21.27C638.6,4.2,601.231-.113,563.506,0,493.828.221,423.79,11.85,355.439,27.621c-31.443,7.258-63.33,15-93.658,27.618-17.162,7.135-29.824,20.9-46.208,29.063-52.767,26.3-109.459,40.35-163.133,64.4-15.535,6.964-73.565,30.147-44.332,57.481,28.3,26.46,69.589,23.315,99.014,48.2,3.33,2.851,7.451,6.261,9.382,10.866,1.141,2.755-.868,8,0,9.567C125.54,291.862,157.676,294.569,171.565,298.114Z" transform="translate(1155.973 709.769) rotate(180)" fill="rgba(0,0,0,0)" stroke="#c1c8d8" stroke-miterlimit="10" stroke-width="2"/>
      <path id="Shape-37" data-name="Shape" d="M137.287,241.482c56.156,9.4,113.546,11.733,170.648,12.325,31.211.325,65.5,2.751,96.044-6.9,18.76-5.942,36.875-11.138,56.218-14.883,20.807-4.031,54.311-6.964,66.982-28.81,9.466-16.326,2.978-49.884,2.635-69.734-.368-21.77,3.291-37.916,15.884-53.494,7.918-9.811,44.242-45.423,40.045-55.691-3.994-9.782-29.305-11.281-40.249-13.823C510.9,2.412,475.854-.391,440.671.043c-54.49.668-109.184,7.451-162.823,19.1-22.176,4.844-45.094,9.858-66.278,19.536C197.3,45.208,185.407,56.776,171.236,63.52,130.651,82.864,87.738,96,47.012,115.7,33.942,122.03-8.644,138.889,1.565,164.872c8.513,21.694,37.465,28.29,51.692,42.835C77.457,232.5,106.427,236.325,137.287,241.482Z" transform="translate(1050.778 671.619) rotate(180)" fill="rgba(0,0,0,0)" stroke="#c1c8d8" stroke-miterlimit="10" stroke-width="2"/>
      <path id="Shape-38" data-name="Shape" d="M85.965,193.186a1003.116,1003.116,0,0,0,135.329,9.077c29.171.085,59.945.571,88.57-7.432,14.379-4.016,26.874-13.409,40.482-20.106,14.013-6.888,33.351-14.577,39.408-30.372,5.691-14.844,3.565-36.5,8.563-54.4,4.445-15.881,13.748-25.69,23.768-36.424,6.383-6.861,39.167-36.558,35.373-43.118-4.064-7.023-23.752-6.451-34-7.421A647.989,647.989,0,0,0,338.6.4c-38.629,1.446-77.555,5.48-115.515,14.615C196.155,21.484,175.849,36.9,150.742,48.2c-32.526,14.681-66.22,26.29-98.434,42.351-16.049,8.007-39.809,18.3-48.031,38.96-3.16,7.916-6.228,28.052-2.71,35.967,4.227,9.515,19.961,13.549,27.387,16C47.561,187.572,67.033,190.54,85.965,193.186Z" transform="translate(964.08 635.788) rotate(180)" fill="rgba(0,0,0,0)" stroke="#c1c8d8" stroke-miterlimit="10" stroke-width="2"/>
      <path id="Shape-39" data-name="Shape" d="M71.054,153.709c55.685,7.648,118.6,14.139,174.458-1.252,22.573-6.213,45.052-24.622,54.256-49.707,4.77-12.972,5.795-28.411,12.917-40.983,5.275-9.292,11.985-17.686,18.6-25.505,3.728-4.417,27.614-28.613,23-32.934C349.429-1.232,337.5.26,329.35.145a549.906,549.906,0,0,0-58.574,2.447c-22.37,2.081-45.269,4.78-66.963,12.083-17.5,5.927-33.447,18.4-50.488,25.812-44.8,19.618-92.011,34.992-134.071,64.045-8.948,6.176-26.643,15.421-15.892,29.378C16.736,151.3,53.849,151.358,71.054,153.709Z" transform="translate(907.437 611.504) rotate(180)" fill="rgba(0,0,0,0)" stroke="#c1c8d8" stroke-miterlimit="10" stroke-width="2"/>
      <path id="Shape-40" data-name="Shape" d="M50.237,119.123c39.65,5.354,83.639,7.87,123.448-3.162,20.16-5.582,38.147-17.212,46.924-39.723,6.283-16.045,7.976-33.95,16.563-49.368,3.039-5.44,14.207-20.706,8.7-24.038C234.094-4.335,207.8,3.914,191.457,7.675c-24.6,5.7-45.134,21.646-68.521,31.1C87.062,53.273,41.605,61.02,8.912,85.733-22.6,109.629,38.668,117.555,50.237,119.123Z" transform="translate(838.079 590.701) rotate(180)" fill="rgba(0,0,0,0)" stroke="#c1c8d8" stroke-miterlimit="10" stroke-width="2"/>
      <path id="Shape-41" data-name="Shape" d="M28.531,82.914c33.639,4.817,93.478,7.2,112.671-31.558,3.562-7.2,13.394-46.922,3.892-50.469-7.832-2.911-20.123,1.9-28.972,6.39-16.46,8.315-31.9,17.379-48.914,24.243C52.726,37.36,37.9,42.746,23.6,49.535c-6.065,2.849-17.467,6.3-21.272,12.786C-7.91,79.767,18.287,81.454,28.531,82.914Z" transform="translate(771.033 567.587) rotate(180)" fill="#01002d" stroke="#c1c8d8" stroke-width="2"/>
    </g>
  </g>
</svg>
